<svg width="76" height="85" viewBox="0 0 76 85" fill="none" xmlns="http://www.w3.org/2000/svg">
<path d="M58.3765 39.094C54.7399 35.4595 50.1074 32.9848 45.0646 31.9829C40.0218 30.981 34.7952 31.4969 30.0456 33.4652C25.2959 35.4336 21.2365 38.7661 18.3804 43.0414C15.5244 47.3167 14 52.3429 14 57.4845C14 62.6261 15.5244 67.6524 18.3804 71.9277C21.2365 76.203 25.2959 79.5355 30.0456 81.5038C34.7952 83.4722 40.0218 83.988 45.0646 82.9861C50.1074 81.9842 54.7399 79.5096 58.3765 75.875C60.7933 73.461 62.7105 70.5942 64.0186 67.4386C65.3267 64.283 66 60.9005 66 57.4845C66 54.0685 65.3267 50.686 64.0186 47.5305C62.7105 44.3749 60.7933 41.5081 58.3765 39.094ZM30.2233 79.1571L61.6584 47.7203C63.647 52.1198 64.2481 57.0208 63.3817 61.7705C62.5153 66.5202 60.2225 70.8932 56.8087 74.3072C53.395 77.7211 49.0222 80.014 44.2727 80.8805C39.5233 81.7469 34.6226 81.1458 30.2233 79.1571ZM21.5 71.9277C20.8579 71.2713 20 70.4845 19.5 68.9845L51.5 36.4845C53.5 37.4845 54.3579 38.4519 55 39.094L21.5 71.9277ZM41 33.8641C42.5 33.8641 44.4078 33.8418 45 33.9845L16.5 62.4845C16.3573 61.8852 16 59.4845 16.3679 57.9845L41 33.8641ZM24.5 75.4845L57.5 41.4845C58.2093 42.3856 60.4365 45.4857 61 46.4845L29 78.4845C28.0025 77.9285 25.4074 76.1779 24.5 75.4845Z" fill="#FF0000" stroke="#FF0000" stroke-width="2"/>
<path d="M18.098 29.0345C18.3909 29.3238 18.7863 29.4855 19.198 29.4845C19.6058 29.4808 19.9964 29.3196 20.288 29.0345L34.5 14.4845L38.5 18.4845L40.5 6.48453L28.5 8.48453L32.5 12.4845L19.148 25.7545L4.638 11.2445C4.49478 11.0997 4.32426 10.9847 4.1363 10.9063C3.94834 10.8278 3.74668 10.7874 3.543 10.7874C3.33932 10.7874 3.13766 10.8278 2.9497 10.9063C2.76175 10.9847 2.59122 11.0997 2.448 11.2445C2.16098 11.5347 2 11.9264 2 12.3345C2 12.7427 2.16098 13.1343 2.448 13.4245L18.098 29.0345Z" fill="black" stroke="black" stroke-width="4"/>
<path d="M65.0266 7.98453L50.4345 22.8445C50.2242 23.0636 50.0825 23.3393 50.0266 23.6377C49.9708 23.9362 50.0032 24.2445 50.12 24.5247C50.2368 24.805 50.4328 25.0451 50.6841 25.2156C50.9353 25.3861 51.2309 25.4796 51.5345 25.4845C51.9458 25.4834 52.3404 25.322 52.6345 25.0345L67.0266 9.98453L70.5266 13.4845L72.5266 2.48453L61.5266 4.48453L65.0266 7.98453Z" fill="black" stroke="black" stroke-width="4"/>
</svg>
